# xmcd
#
# Track frame offsets: 
#        150
#        24984
#        46923
#        79669
#        102286
#        124964
#        149937
#        159486
#
# Disc length: 2334 seconds
#
# Revision: 0
# Processed by: cddbd v1.5.1PL0 Copyright (c) Steve Scherf et al.
# Submitted via: ExactAudioCopy v0.90b3
#
DISCID=68091c08
DTITLE=Tom Walbanks - Excalibooty!
DYEAR=2002
DGENRE=Blues
TTITLE0=Long Distance Call - live
TTITLE1=Grease Monkey's Daughter - live
TTITLE2=Boogie Chillun - live
TTITLE3=Mississippi Dream - live
TTITLE4=Whoopin the Blues - live
TTITLE5=Mississippi Dream
TTITLE6=Ride with the Devil
TTITLE7=Cool that Woman Down
EXTD=
EXTT0=
EXTT1=
EXTT2=
EXTT3=
EXTT4=
EXTT5=
EXTT6=
EXTT7=
PLAYORDER=
